<svg version="1.1" xmlns="http://www.w3.org/2000/svg" xmlns:xlink="http://www.w3.org/1999/xlink" xmlns:i="http://ns.adobe.com/AdobeIllustrator/10.0/" xmlns:sketch="http://www.bohemiancoding.com/sketch/ns" height="480" width="640" x="0px" y="0px" viewBox="0 0 640 480" xml:space="preserve" preserveAspectRatio="xMidYMid meet" class="">{{text2Gradient}}<rect x="0px" y="0px" width="100%" height="100%" fill="none"></rect><g class="logo-container-box logoContainerBox" transform="scale(0.99) translate(3.232307973534148,2.424227165453374)"><g class="containerBody" transform="scale(1.12) translate(253.90927777971535,-25.71427808489119)"><g class="sampleIconBox" transform="scale(1) translate(0,0)"><g class="sampleIcons_1" transform="scale(3.097101523929334) translate(-46.70355291366577,27.49180717468262)" fill="#00AB55"><g fill="#00AB55"><path d="M85.3,90.9c-2,0-3.7-1.6-3.7-3.7c0-2,1.6-3.7,3.7-3.7s3.7,1.6,3.7,3.7C89,89.3,87.4,90.9,85.3,90.9z M67.2,87.2  c0-2-1.6-3.7-3.7-3.7c-2,0-3.7,1.6-3.7,3.7c0,2,1.6,3.7,3.7,3.7C65.6,90.9,67.2,89.3,67.2,87.2z M1.5,64.1C1.5,64.1,1.5,64,1.5,64.1  l0-0.5c0,0,0-0.1,0-0.1V56c0,0,0,0,0-0.1V14.7c0-3.1,2.5-5.6,5.6-5.6h65.8c3.1,0,5.6,2.5,5.6,5.6v28.6l-8.6-0.8V18H10.1v39h34.7  l4.8,23.4H23.4c-1.2,0-2.1-1-2.1-2.1s1-2.1,2.1-2.1h-0.2c7.5-0.9,8.1-6,8.2-7.1h-25c-2.7,0-4.8-2.1-4.9-4.7h0V64.1z M37.2,63.4  c0,1.5,1.2,2.7,2.7,2.7s2.7-1.2,2.7-2.7c0-1.5-1.2-2.7-2.7-2.7S37.2,61.9,37.2,63.4z M54,46.9c-0.2,0-0.4,0-0.7,0l-1.7-8  c-0.1-0.6-0.4-1-0.9-1.3c-0.2-0.2-0.5-0.4-0.9-0.5l-9.8-2.9c-1.2-0.4-2.5,0.3-2.8,1.6c-0.4,1.2,0.3,2.5,1.6,2.8l8.6,2.5l7.9,38.1  c0.2,1.1,1.2,1.8,2.3,1.8c0,0,0,0,0,0l33.9,0c1.3,0,2.3-1,2.3-2.3s-1-2.3-2.3-2.3l-32.1,0l-1.1-5.2h33.7c1.8,0,3.3-1.2,3.6-2.8  l2.7-13.7c0.4-2-1.1-3.8-3.2-4L90,50.2L54,46.9z" fill="#00AB55"></path></g></g></g><g class="sampleTexts_1" transform="scale(1) translate(-0.000009155273431815658,2.605006694793701)"><g class="logo--name svgLogoName_1 logoNameBox" transform="scale(1) translate(194.80000009536744,240)" fill="#00AB55"><path d="M3.60-5.21L3.60 0L8.81 0L8.81-5.21L3.60-5.21Z" fill="#00AB55"></path></g><g id="" class="logo--name svgSloganText_1 sloganBox" transform="scale(1) translate(198.4,259.2)" fill="#00AB55"><path d="" fill="#00AB55"></path></g></g></g></g></svg>