<svg version="1.1" xmlns="http://www.w3.org/2000/svg" xmlns:xlink="http://www.w3.org/1999/xlink" xmlns:i="http://ns.adobe.com/AdobeIllustrator/10.0/" xmlns:sketch="http://www.bohemiancoding.com/sketch/ns" height="480" width="640" x="0px" y="0px" viewBox="0 0 640 480" xml:space="preserve" preserveAspectRatio="xMidYMid meet" class="">{{text2Gradient}}<rect x="0px" y="0px" width="100%" height="100%" fill="none"></rect><g class="logo-container-box logoContainerBox" transform="scale(0.99) translate(3.2323308617177418,2.4242500536369676)"><g class="containerBody" transform="scale(1.0712258702781976) translate(78.46817559386449,-15.957636815420102)"><g class="sampleIconBox" transform="scale(1) translate(0,0)"><g class="sampleIcons_1" transform="scale(1.548550761964667) translate(4.957653141021737,104.98361625671387)" fill="#00AB55"><g fill="#00AB55"><path d="M85.3,90.9c-2,0-3.7-1.6-3.7-3.7c0-2,1.6-3.7,3.7-3.7s3.7,1.6,3.7,3.7C89,89.3,87.4,90.9,85.3,90.9z M67.2,87.2  c0-2-1.6-3.7-3.7-3.7c-2,0-3.7,1.6-3.7,3.7c0,2,1.6,3.7,3.7,3.7C65.6,90.9,67.2,89.3,67.2,87.2z M1.5,64.1C1.5,64.1,1.5,64,1.5,64.1  l0-0.5c0,0,0-0.1,0-0.1V56c0,0,0,0,0-0.1V14.7c0-3.1,2.5-5.6,5.6-5.6h65.8c3.1,0,5.6,2.5,5.6,5.6v28.6l-8.6-0.8V18H10.1v39h34.7  l4.8,23.4H23.4c-1.2,0-2.1-1-2.1-2.1s1-2.1,2.1-2.1h-0.2c7.5-0.9,8.1-6,8.2-7.1h-25c-2.7,0-4.8-2.1-4.9-4.7h0V64.1z M37.2,63.4  c0,1.5,1.2,2.7,2.7,2.7s2.7-1.2,2.7-2.7c0-1.5-1.2-2.7-2.7-2.7S37.2,61.9,37.2,63.4z M54,46.9c-0.2,0-0.4,0-0.7,0l-1.7-8  c-0.1-0.6-0.4-1-0.9-1.3c-0.2-0.2-0.5-0.4-0.9-0.5l-9.8-2.9c-1.2-0.4-2.5,0.3-2.8,1.6c-0.4,1.2,0.3,2.5,1.6,2.8l8.6,2.5l7.9,38.1  c0.2,1.1,1.2,1.8,2.3,1.8c0,0,0,0,0,0l33.9,0c1.3,0,2.3-1,2.3-2.3s-1-2.3-2.3-2.3l-32.1,0l-1.1-5.2h33.7c1.8,0,3.3-1.2,3.6-2.8  l2.7-13.7c0.4-2-1.1-3.8-3.2-4L90,50.2L54,46.9z" fill="#00AB55"></path></g></g></g><g class="sampleTexts_1" transform="scale(1) translate(0.000006103515630684342,9.030006408691406)"><g class="logo--name svgLogoName_1 logoNameBox" transform="scale(1) translate(194.80000009536744,240)" fill="#00AB55"><path d="M17.98-52.21L17.98-52.21Q21.74-52.21 24.42-49.53L24.42-49.53L24.42-49.53Q27.11-46.85 27.11-43.08L27.11-43.08L27.11-39.16L32.31-39.16L32.31-43.08L32.31-43.08Q32.31-49.01 28.11-53.21L28.11-53.21L28.11-53.21Q23.90-57.42 17.98-57.42L17.98-57.42L17.98-57.42Q12.01-57.42 7.81-53.21L7.81-53.21L7.81-53.21Q3.60-49.01 3.60-43.08L3.60-43.08L3.60-40.48L3.60-40.48Q3.60-34.51 7.81-30.31L7.81-30.31L7.81-30.31Q12.01-26.11 17.98-26.11L17.98-26.11L17.98-26.11Q21.74-26.11 24.42-23.42L24.42-23.42L24.42-23.42Q27.11-20.74 27.11-16.98L27.11-16.98L27.11-14.37L27.11-14.37Q27.11-10.57 24.42-7.89L24.42-7.89L24.42-7.89Q21.74-5.21 17.98-5.21L17.98-5.21L17.98-5.21Q14.17-5.21 11.49-7.89L11.49-7.89L11.49-7.89Q8.81-10.57 8.81-14.37L8.81-14.37L8.81-18.26L3.60-18.26L3.60-14.37L3.60-14.37Q3.60-8.41 7.81-4.20L7.81-4.20L7.81-4.20Q12.01 0 17.98 0L17.98 0L17.98 0Q23.90 0 28.11-4.20L28.11-4.20L28.11-4.20Q32.31-8.41 32.31-14.37L32.31-14.37L32.31-16.98L32.31-16.98Q32.31-22.90 28.11-27.11L28.11-27.11L28.11-27.11Q23.90-31.31 17.98-31.31L17.98-31.31L17.98-31.31Q14.17-31.31 11.49-33.99L11.49-33.99L11.49-33.99Q8.81-36.68 8.81-40.48L8.81-40.48L8.81-43.08L8.81-43.08Q8.81-46.85 11.49-49.53L11.49-49.53L11.49-49.53Q14.17-52.21 17.98-52.21L17.98-52.21ZM39.52-31.15L39.52-25.95L70.83-25.95L70.83-31.15L39.52-31.15ZM119.80-57.42L114.27-57.42L98.94-26.71L83.56-57.42L78.04-57.42L78.04 0L83.24 0L83.24-46.37L98.94-15.05L114.59-46.37L114.59 0L119.80 0L119.80-57.42ZM146.82-57.42L140.06-57.42L127.00 0L132.37 0L135.33-13.05L151.55-13.05L154.55 0L159.88 0L146.82-57.42ZM136.49-18.26L143.46-48.77L150.39-18.26L136.49-18.26ZM172.29-30.03L172.29-52.21L182.10-52.21L182.10-52.21Q185.86-52.21 188.54-49.53L188.54-49.53L188.54-49.53Q191.23-46.85 191.23-43.08L191.23-43.08L191.23-39.16L191.23-39.16Q191.23-35.39 188.54-32.71L188.54-32.71L188.54-32.71Q185.86-30.03 182.10-30.03L182.10-30.03L172.29-30.03ZM181.14-24.78L192.79 0L198.55 0L186.54-25.50L186.54-25.50Q190.91-26.95 193.67-30.67L193.67-30.67L193.67-30.67Q196.43-34.43 196.43-39.16L196.43-39.16L196.43-43.08L196.43-43.08Q196.43-49.01 192.23-53.21L192.23-53.21L192.23-53.21Q188.02-57.42 182.10-57.42L182.10-57.42L167.08-57.42L167.08 0L172.29 0L172.29-24.78L181.14-24.78ZM235.71-57.42L201.76-57.42L201.76-52.21L216.13-52.21L216.13 0L221.34 0L221.34-52.21L235.71-52.21L235.71-57.42Z" fill="#00AB55"></path></g><g id="" class="logo--name svgSloganText_1 sloganBox" transform="scale(1) translate(197.62000002861024,274.989999961853)" fill="#00AB55"><path d="M5.12 0.13L5.12 0.13Q3.86 0.13 2.79-0.17L2.79-0.17L2.79-0.17Q1.72-0.46 1.18-0.88L1.18-0.88L1.18-0.88Q0.78-1.18 0.78-1.41L0.78-1.41L0.78-1.41Q0.78-1.66 1.06-2.10L1.06-2.10L1.06-2.10Q1.34-2.54 1.51-2.54L1.51-2.54L1.51-2.54Q1.60-2.54 1.95-2.33L1.95-2.33L1.95-2.33Q2.60-1.97 3.35-1.72L3.35-1.72L3.35-1.72Q4.10-1.47 5.12-1.47L5.12-1.47L5.12-1.47Q6.34-1.47 7.11-2.15L7.11-2.15L7.11-2.15Q7.88-2.83 7.88-3.95L7.88-3.95L7.88-3.95Q7.88-4.73 7.46-5.24L7.46-5.24L7.46-5.24Q7.04-5.75 6.44-6.06L6.44-6.06L6.44-6.06Q5.84-6.36 4.70-6.80L4.70-6.80L4.70-6.80Q3.49-7.29 2.77-7.69L2.77-7.69L2.77-7.69Q2.06-8.09 1.55-8.87L1.55-8.87L1.55-8.87Q1.05-9.66 1.05-10.94L1.05-10.94L1.05-10.94Q1.05-12.08 1.63-12.96L1.63-12.96L1.63-12.96Q2.21-13.84 3.27-14.33L3.27-14.33L3.27-14.33Q4.33-14.83 5.71-14.83L5.71-14.83L5.71-14.83Q6.43-14.83 7.31-14.63L7.31-14.63L7.31-14.63Q8.19-14.43 8.67-14.09L8.67-14.09L8.67-14.09Q9.09-13.84 9.09-13.55L9.09-13.55L9.09-13.55Q9.09-13.31 8.83-12.87L8.83-12.87L8.83-12.87Q8.57-12.43 8.42-12.43L8.42-12.43L8.42-12.43Q8.32-12.43 8.12-12.54L8.12-12.54L8.12-12.54Q7.92-12.64 7.85-12.68L7.85-12.68L7.85-12.68Q6.80-13.23 5.67-13.23L5.67-13.23L5.67-13.23Q4.45-13.23 3.71-12.60L3.71-12.60L3.71-12.60Q2.96-11.97 2.96-10.86L2.96-10.86L2.96-10.86Q2.96-10.14 3.33-9.70L3.33-9.70L3.33-9.70Q3.70-9.26 4.17-9.04L4.17-9.04L4.17-9.04Q4.64-8.82 5.82-8.36L5.82-8.36L5.82-8.36Q7.08-7.88 7.88-7.42L7.88-7.42L7.88-7.42Q8.67-6.97 9.23-6.12L9.23-6.12L9.23-6.12Q9.79-5.27 9.79-3.95L9.79-3.95L9.79-3.95Q9.79-2.06 8.53-0.97L8.53-0.97L8.53-0.97Q7.27 0.13 5.12 0.13L5.12 0.13ZM13.27 0.04L13.27 0.04Q12.43 0.04 12.43-0.42L12.43-0.42L12.43-15.33L12.43-15.33Q12.43-15.79 13.27-15.79L13.27-15.79L13.36-15.79L13.36-15.79Q14.20-15.79 14.20-15.33L14.20-15.33L14.20-9.66L14.20-9.66Q14.83-10.29 15.66-10.70L15.66-10.70L15.66-10.70Q16.48-11.11 17.41-11.11L17.41-11.11L17.41-11.11Q18.73-11.11 19.74-10.36L19.74-10.36L19.74-10.36Q20.75-9.62 20.75-7.71L20.75-7.71L20.75-0.42L20.75-0.42Q20.75 0.04 19.91 0.04L19.91 0.04L19.82 0.04L19.82 0.04Q18.98 0.04 18.98-0.42L18.98-0.42L18.98-7.54L18.98-7.54Q18.98-8.48 18.44-9.03L18.44-9.03L18.44-9.03Q17.89-9.58 16.84-9.58L16.84-9.58L16.84-9.58Q16.15-9.58 15.56-9.25L15.56-9.25L15.56-9.25Q14.97-8.93 14.58-8.54L14.58-8.54L14.58-8.54Q14.20-8.15 14.20-8.11L14.20-8.11L14.20-0.42L14.20-0.42Q14.20 0.04 13.36 0.04L13.36 0.04L13.27 0.04ZM28.39 0.13L28.39 0.13Q26.02 0.13 24.77-1.30L24.77-1.30L24.77-1.30Q23.52-2.73 23.52-5.44L23.52-5.44L23.52-5.44Q23.52-8.17 24.78-9.64L24.78-9.64L24.78-9.64Q26.04-11.11 28.39-11.11L28.39-11.11L28.39-11.11Q30.70-11.11 31.93-9.65L31.93-9.65L31.93-9.65Q33.16-8.19 33.16-5.44L33.16-5.44L33.16-5.44Q33.16-2.71 31.95-1.29L31.95-1.29L31.95-1.29Q30.74 0.13 28.39 0.13L28.39 0.13ZM28.33-1.39L28.33-1.39Q29.86-1.39 30.60-2.38L30.60-2.38L30.60-2.38Q31.33-3.38 31.33-5.48L31.33-5.48L31.33-5.48Q31.33-7.58 30.60-8.59L30.60-8.59L30.60-8.59Q29.86-9.60 28.33-9.60L28.33-9.60L28.33-9.60Q26.80-9.60 26.08-8.60L26.08-8.60L26.08-8.60Q25.37-7.60 25.37-5.48L25.37-5.48L25.37-5.48Q25.37-3.38 26.08-2.38L26.08-2.38L26.08-2.38Q26.80-1.39 28.33-1.39L28.33-1.39ZM36.96 4.37L36.96 4.37Q36.12 4.37 36.12 3.91L36.12 3.91L36.12-7.79L36.12-7.79Q36.12-9.18 35.99-9.78L35.99-9.78L35.99-9.78Q35.87-10.37 35.87-10.44L35.87-10.44L35.87-10.44Q35.87-10.69 36.27-10.80L36.27-10.80L36.27-10.80Q36.67-10.92 37.00-10.92L37.00-10.92L37.00-10.92Q37.30-10.92 37.43-10.62L37.43-10.62L37.43-10.62Q37.57-10.31 37.64-9.98L37.64-9.98L37.64-9.98Q37.72-9.64 37.74-9.53L37.74-9.53L37.74-9.53Q39.25-11.11 41.08-11.11L41.08-11.11L41.08-11.11Q42.36-11.11 43.27-10.38L43.27-10.38L43.27-10.38Q44.18-9.66 44.67-8.39L44.67-8.39L44.67-8.39Q45.15-7.12 45.15-5.48L45.15-5.48L45.15-5.48Q45.15-3.70 44.61-2.44L44.61-2.44L44.61-2.44Q44.08-1.18 43.11-0.53L43.11-0.53L43.11-0.53Q42.15 0.13 40.89 0.13L40.89 0.13L40.89 0.13Q39.96 0.13 39.26-0.15L39.26-0.15L39.26-0.15Q38.56-0.42 37.88-0.95L37.88-0.95L37.88 3.91L37.88 3.91Q37.88 4.37 37.04 4.37L37.04 4.37L36.96 4.37ZM40.49-1.43L40.49-1.43Q41.87-1.43 42.59-2.44L42.59-2.44L42.59-2.44Q43.30-3.44 43.30-5.33L43.30-5.33L43.30-5.33Q43.30-7.37 42.63-8.47L42.63-8.47L42.63-8.47Q41.96-9.58 40.72-9.58L40.72-9.58L40.72-9.58Q40.01-9.58 39.26-9.20L39.26-9.20L39.26-9.20Q38.51-8.82 37.88-8.13L37.88-8.13L37.88-2.37L37.88-2.37Q39.02-1.43 40.49-1.43L40.49-1.43ZM55.46 0.19L55.46 0.19Q54.56 0.19 53.79-0.03L53.79-0.03L53.79-0.03Q53.03-0.25 52.57-0.57L52.57-0.57L52.57-0.57Q52.12-0.88 52.12-1.13L52.12-1.13L52.12-1.13Q52.12-1.34 52.38-1.76L52.38-1.76L52.38-1.76Q52.65-2.18 52.86-2.18L52.86-2.18L52.86-2.18Q52.90-2.18 53.26-1.95L53.26-1.95L53.26-1.95Q53.61-1.72 54.15-1.53L54.15-1.53L54.15-1.53Q54.68-1.34 55.34-1.34L55.34-1.34L55.34-1.34Q57.39-1.34 57.39-3.05L57.39-3.05L57.39-3.05Q57.39-3.76 56.93-4.18L56.93-4.18L56.93-4.18Q56.47-4.60 55.29-4.94L55.29-4.94L55.29-4.94Q53.63-5.42 53.00-6.14L53.00-6.14L53.00-6.14Q52.37-6.87 52.37-8.09L52.37-8.09L52.37-8.09Q52.37-8.97 52.83-9.66L52.83-9.66L52.83-9.66Q53.28-10.35 54.06-10.74L54.06-10.74L54.06-10.74Q54.85-11.13 55.86-11.13L55.86-11.13L55.86-11.13Q56.93-11.13 57.78-10.86L57.78-10.86L57.78-10.86Q58.63-10.58 58.63-10.23L58.63-10.23L58.63-10.23Q58.63-9.95 58.39-9.52L58.39-9.52L58.39-9.52Q58.15-9.09 57.96-9.09L57.96-9.09L57.96-9.09Q57.90-9.11 57.40-9.38L57.40-9.38L57.40-9.38Q56.91-9.64 56.05-9.64L56.05-9.64L56.05-9.64Q55.25-9.64 54.72-9.28L54.72-9.28L54.72-9.28Q54.18-8.93 54.18-8.32L54.18-8.32L54.18-8.32Q54.18-7.60 54.56-7.18L54.56-7.18L54.56-7.18Q54.94-6.76 55.82-6.49L55.82-6.49L55.82-6.49Q57.16-6.07 57.87-5.66L57.87-5.66L57.87-5.66Q58.57-5.25 58.87-4.65L58.87-4.65L58.87-4.65Q59.18-4.05 59.18-3.09L59.18-3.09L59.18-3.09Q59.18-2.16 58.68-1.42L58.68-1.42L58.68-1.42Q58.19-0.67 57.34-0.24L57.34-0.24L57.34-0.24Q56.49 0.19 55.46 0.19L55.46 0.19ZM73.00-11.11L73.00-11.11Q74.32-11.11 75.31-10.36L75.31-10.36L75.31-10.36Q76.29-9.62 76.29-7.71L76.29-7.71L76.29-0.42L76.29-0.42Q76.29 0.04 75.45 0.04L75.45 0.04L75.37 0.04L75.37 0.04Q74.53 0.04 74.53-0.42L74.53-0.42L74.53-7.54L74.53-7.54Q74.53-8.48 74.01-9.03L74.01-9.03L74.01-9.03Q73.50-9.58 72.51-9.58L72.51-9.58L72.51-9.58Q71.17-9.58 69.93-8.11L69.93-8.11L69.93-8.11Q69.95-7.96 69.95-7.69L69.95-7.69L69.95-0.42L69.95-0.42Q69.95 0.04 69.11 0.04L69.11 0.04L69.03 0.04L69.03 0.04Q68.19 0.04 68.19-0.42L68.19-0.42L68.19-7.54L68.19-7.54Q68.19-8.48 67.67-9.03L67.67-9.03L67.67-9.03Q67.16-9.58 66.17-9.58L66.17-9.58L66.17-9.58Q65.50-9.58 64.92-9.25L64.92-9.25L64.92-9.25Q64.34-8.93 63.98-8.55L63.98-8.55L63.98-8.55Q63.61-8.17 63.61-8.13L63.61-8.13L63.61-0.42L63.61-0.42Q63.61 0.04 62.77 0.04L62.77 0.04L62.69 0.04L62.69 0.04Q61.85 0.04 61.85-0.42L61.85-0.42L61.85-7.79L61.85-7.79Q61.85-9.18 61.72-9.78L61.72-9.78L61.72-9.78Q61.59-10.37 61.59-10.44L61.59-10.44L61.59-10.44Q61.59-10.69 61.99-10.80L61.99-10.80L61.99-10.80Q62.39-10.92 62.73-10.92L62.73-10.92L62.73-10.92Q63.02-10.92 63.16-10.62L63.16-10.62L63.16-10.62Q63.29-10.31 63.37-9.98L63.37-9.98L63.37-9.98Q63.44-9.64 63.46-9.53L63.46-9.53L63.46-9.53Q64.05-10.21 64.88-10.66L64.88-10.66L64.88-10.66Q65.71-11.11 66.65-11.11L66.65-11.11L66.65-11.11Q67.60-11.11 68.43-10.72L68.43-10.72L68.43-10.72Q69.26-10.33 69.66-9.37L69.66-9.37L69.66-9.37Q70.31-10.12 71.18-10.62L71.18-10.62L71.18-10.62Q72.05-11.11 73.00-11.11L73.00-11.11ZM82.49 0.13L82.49 0.13Q80.87 0.13 79.88-0.67L79.88-0.67L79.88-0.67Q78.90-1.47 78.90-3.02L78.90-3.02L78.90-3.02Q78.90-4.68 79.89-5.51L79.89-5.51L79.89-5.51Q80.89-6.34 82.34-6.58L82.34-6.58L82.34-6.58Q83.79-6.83 85.87-6.85L85.87-6.85L85.87-7.83L85.87-7.83Q85.87-8.61 85.32-9.10L85.32-9.10L85.32-9.10Q84.78-9.60 83.56-9.60L83.56-9.60L83.56-9.60Q82.64-9.60 81.94-9.38L81.94-9.38L81.94-9.38Q81.25-9.16 80.79-8.94L80.79-8.94L80.79-8.94Q80.33-8.71 80.28-8.71L80.28-8.71L80.28-8.71Q80.07-8.71 79.81-9.13L79.81-9.13L79.81-9.13Q79.55-9.55 79.55-9.77L79.55-9.77L79.55-9.77Q79.55-10.04 80.10-10.35L80.10-10.35L80.10-10.35Q80.66-10.67 81.59-10.89L81.59-10.89L81.59-10.89Q82.51-11.11 83.50-11.11L83.50-11.11L83.50-11.11Q85.45-11.11 86.54-10.24L86.54-10.24L86.54-10.24Q87.63-9.37 87.63-7.81L87.63-7.81L87.63-3.11L87.63-3.11Q87.63-1.72 87.76-1.12L87.76-1.12L87.76-1.12Q87.89-0.53 87.89-0.46L87.89-0.46L87.89-0.46Q87.89-0.21 87.49-0.09L87.49-0.09L87.49-0.09Q87.09 0.02 86.75 0.02L86.75 0.02L86.75 0.02Q86.46 0.02 86.32-0.30L86.32-0.30L86.32-0.30Q86.18-0.63 86.11-0.99L86.11-0.99L86.11-0.99Q86.04-1.34 86.02-1.45L86.02-1.45L86.02-1.45Q84.59 0.13 82.49 0.13L82.49 0.13ZM82.57-1.41L82.57-1.41Q83.60-1.41 84.35-1.79L84.35-1.79L84.35-1.79Q85.09-2.16 85.87-2.86L85.87-2.86L85.87-5.33L85.87-5.33Q84.29-5.31 83.30-5.21L83.30-5.21L83.30-5.21Q82.30-5.10 81.54-4.62L81.54-4.62L81.54-4.62Q80.79-4.14 80.79-3.13L80.79-3.13L80.79-3.13Q80.79-2.29 81.24-1.85L81.24-1.85L81.24-1.85Q81.69-1.41 82.57-1.41L82.57-1.41ZM92.04 0.04L92.04 0.04Q91.20 0.04 91.20-0.42L91.20-0.42L91.20-7.79L91.20-7.79Q91.20-9.18 91.08-9.78L91.08-9.78L91.08-9.78Q90.95-10.37 90.95-10.44L90.95-10.44L90.95-10.44Q90.95-10.69 91.35-10.80L91.35-10.80L91.35-10.80Q91.75-10.92 92.09-10.92L92.09-10.92L92.09-10.92Q92.38-10.92 92.52-10.62L92.52-10.62L92.52-10.62Q92.65-10.31 92.73-9.98L92.73-9.98L92.73-9.98Q92.80-9.64 92.82-9.53L92.82-9.53L92.82-9.53Q93.93-11.11 95.26-11.11L95.26-11.11L95.26-11.11Q95.84-11.11 96.16-10.88L96.16-10.88L96.16-10.88Q96.47-10.65 96.47-10.29L96.47-10.29L96.47-10.29Q96.47-9.93 96.35-9.54L96.35-9.54L96.35-9.54Q96.22-9.16 96.05-9.16L96.05-9.16L96.05-9.16Q95.95-9.16 95.64-9.27L95.64-9.27L95.64-9.27Q95.34-9.39 94.90-9.39L94.90-9.39L94.90-9.39Q94.42-9.39 93.99-9.10L93.99-9.10L93.99-9.10Q93.56-8.82 93.26-8.48L93.26-8.48L93.26-8.48Q92.97-8.15 92.97-8.11L92.97-8.11L92.97-0.42L92.97-0.42Q92.97 0.04 92.13 0.04L92.13 0.04L92.04 0.04ZM101.96 0.13L101.96 0.13Q100.91 0.13 100.08-0.51L100.08-0.51L100.08-0.51Q99.25-1.16 99.25-2.77L99.25-2.77L99.25-9.47L98.20-9.47L98.20-9.47Q97.99-9.47 97.88-9.62L97.88-9.62L97.88-9.62Q97.78-9.77 97.78-10.10L97.78-10.10L97.78-10.35L97.78-10.35Q97.78-10.69 97.88-10.84L97.88-10.84L97.88-10.84Q97.99-10.98 98.20-10.98L98.20-10.98L99.25-10.98L99.50-13.19L99.50-13.19Q99.56-13.65 100.17-13.65L100.17-13.65L100.38-13.65L100.38-13.65Q101.01-13.65 101.01-13.19L101.01-13.19L101.01-10.98L102.77-10.98L102.77-10.98Q103.01-10.98 103.10-10.84L103.10-10.84L103.10-10.84Q103.19-10.69 103.19-10.35L103.19-10.35L103.19-10.10L103.19-10.10Q103.19-9.77 103.10-9.62L103.10-9.62L103.10-9.62Q103.01-9.47 102.77-9.47L102.77-9.47L101.01-9.47L101.01-2.94L101.01-2.94Q101.01-2.06 101.31-1.72L101.31-1.72L101.31-1.72Q101.62-1.39 102.14-1.39L102.14-1.39L102.14-1.39Q102.54-1.39 102.74-1.44L102.74-1.44L102.74-1.44Q102.94-1.49 103.05-1.49L103.05-1.49L103.05-1.49Q103.24-1.49 103.36-1.10L103.36-1.10L103.36-1.10Q103.49-0.71 103.49-0.50L103.49-0.50L103.49-0.50Q103.49 0.13 101.96 0.13L101.96 0.13ZM110.48 0.13L110.48 0.13Q107.86 0.13 106.60-1.24L106.60-1.24L106.60-1.24Q105.34-2.60 105.34-5.42L105.34-5.42L105.34-5.42Q105.34-8.21 106.58-9.66L106.58-9.66L106.58-9.66Q107.81-11.11 110.23-11.11L110.23-11.11L110.23-11.11Q112.37-11.11 113.46-9.71L113.46-9.71L113.46-9.71Q114.56-8.32 114.56-5.63L114.56-5.63L114.56-5.63Q114.56-5.44 114.30-5.10L114.30-5.10L114.30-5.10Q114.05-4.77 113.86-4.77L113.86-4.77L107.23-4.77L107.23-4.77Q107.35-3.02 108.13-2.21L108.13-2.21L108.13-2.21Q108.91-1.39 110.46-1.39L110.46-1.39L110.46-1.39Q111.34-1.39 111.98-1.61L111.98-1.61L111.98-1.61Q112.62-1.83 113.04-2.05L113.04-2.05L113.04-2.05Q113.46-2.27 113.53-2.27L113.53-2.27L113.53-2.27Q113.74-2.27 114.00-1.85L114.00-1.85L114.00-1.85Q114.26-1.43 114.26-1.22L114.26-1.22L114.26-1.22Q114.26-0.97 113.74-0.64L113.74-0.64L113.74-0.64Q113.21-0.32 112.34-0.09L112.34-0.09L112.34-0.09Q111.47 0.13 110.48 0.13L110.48 0.13ZM107.23-6.28L112.69-6.28L112.69-6.28Q112.69-9.60 110.17-9.60L110.17-9.60L110.17-9.60Q107.46-9.60 107.23-6.28L107.23-6.28ZM118.23 0.04L118.23 0.04Q117.39 0.04 117.39-0.42L117.39-0.42L117.39-7.79L117.39-7.79Q117.39-9.18 117.26-9.78L117.26-9.78L117.26-9.78Q117.14-10.37 117.14-10.44L117.14-10.44L117.14-10.44Q117.14-10.69 117.54-10.80L117.54-10.80L117.54-10.80Q117.94-10.92 118.27-10.92L118.27-10.92L118.27-10.92Q118.57-10.92 118.70-10.62L118.70-10.62L118.70-10.62Q118.84-10.31 118.91-9.98L118.91-9.98L118.91-9.98Q118.99-9.64 119.01-9.53L119.01-9.53L119.01-9.53Q120.12-11.11 121.44-11.11L121.44-11.11L121.44-11.11Q122.03-11.11 122.35-10.88L122.35-10.88L122.35-10.88Q122.66-10.65 122.66-10.29L122.66-10.29L122.66-10.29Q122.66-9.93 122.54-9.54L122.54-9.54L122.54-9.54Q122.41-9.16 122.24-9.16L122.24-9.16L122.24-9.16Q122.14-9.16 121.83-9.27L121.83-9.27L121.83-9.27Q121.53-9.39 121.09-9.39L121.09-9.39L121.09-9.39Q120.60-9.39 120.17-9.10L120.17-9.10L120.17-9.10Q119.74-8.82 119.45-8.48L119.45-8.48L119.45-8.48Q119.15-8.15 119.15-8.11L119.15-8.11L119.15-0.42L119.15-0.42Q119.15 0.04 118.31 0.04L118.31 0.04L118.23 0.04ZM124.05 2.44L124.05 2.44Q123.82 2.44 123.63 2.36L123.63 2.36L123.63 2.36Q123.44 2.29 123.44 2.12L123.44 2.12L123.44 2.12Q123.44 2.00 123.63 1.62L123.63 1.62L123.63 1.62Q124.34 0.19 124.34-1.60L124.34-1.60L124.34-1.60Q124.34-1.91 124.55-2.09L124.55-2.09L124.55-2.09Q124.76-2.27 125.18-2.27L125.18-2.27L125.37-2.27L125.37-2.27Q125.77-2.27 125.99-2.11L125.99-2.11L125.99-2.11Q126.21-1.95 126.21-1.68L126.21-1.68L126.21-1.68Q126.21-0.50 125.83 0.43L125.83 0.43L125.83 0.43Q125.45 1.36 124.94 1.90L124.94 1.90L124.94 1.90Q124.43 2.44 124.05 2.44L124.05 2.44ZM135.03 0.04L135.03 0.04Q134.19 0.04 134.19-0.42L134.19-0.42L134.19-7.79L134.19-7.79Q134.19-9.18 134.06-9.78L134.06-9.78L134.06-9.78Q133.94-10.37 133.94-10.44L133.94-10.44L133.94-10.44Q133.94-10.69 134.34-10.80L134.34-10.80L134.34-10.80Q134.74-10.92 135.07-10.92L135.07-10.92L135.07-10.92Q135.37-10.92 135.50-10.62L135.50-10.62L135.50-10.62Q135.64-10.31 135.71-9.98L135.71-9.98L135.71-9.98Q135.79-9.64 135.81-9.53L135.81-9.53L135.81-9.53Q136.48-10.27 137.34-10.69L137.34-10.69L137.34-10.69Q138.20-11.11 139.08-11.11L139.08-11.11L139.08-11.11Q140.68-11.11 141.59-10.21L141.59-10.21L141.59-10.21Q142.51-9.30 142.51-7.71L142.51-7.71L142.51-0.42L142.51-0.42Q142.51 0.04 141.67 0.04L141.67 0.04L141.58 0.04L141.58 0.04Q140.74 0.04 140.74-0.42L140.74-0.42L140.74-7.54L140.74-7.54Q140.74-8.51 140.19-9.04L140.19-9.04L140.19-9.04Q139.63-9.58 138.60-9.58L138.60-9.58L138.60-9.58Q137.89-9.58 137.18-9.18L137.18-9.18L137.18-9.18Q136.48-8.78 135.95-8.11L135.95-8.11L135.95-0.42L135.95-0.42Q135.95 0.04 135.11 0.04L135.11 0.04L135.03 0.04ZM150.11 0.13L150.11 0.13Q147.74 0.13 146.49-1.30L146.49-1.30L146.49-1.30Q145.24-2.73 145.24-5.44L145.24-5.44L145.24-5.44Q145.24-8.17 146.50-9.64L146.50-9.64L146.50-9.64Q147.76-11.11 150.11-11.11L150.11-11.11L150.11-11.11Q152.42-11.11 153.65-9.65L153.65-9.65L153.65-9.65Q154.88-8.19 154.88-5.44L154.88-5.44L154.88-5.44Q154.88-2.71 153.67-1.29L153.67-1.29L153.67-1.29Q152.46 0.13 150.11 0.13L150.11 0.13ZM150.05-1.39L150.05-1.39Q151.58-1.39 152.31-2.38L152.31-2.38L152.31-2.38Q153.05-3.38 153.05-5.48L153.05-5.48L153.05-5.48Q153.05-7.58 152.31-8.59L152.31-8.59L152.31-8.59Q151.58-9.60 150.05-9.60L150.05-9.60L150.05-9.60Q148.51-9.60 147.80-8.60L147.80-8.60L147.80-8.60Q147.08-7.60 147.08-5.48L147.08-5.48L147.08-5.48Q147.08-3.38 147.80-2.38L147.80-2.38L147.80-2.38Q148.51-1.39 150.05-1.39L150.05-1.39ZM160.99 0.13L160.99 0.13Q159.94 0.13 159.11-0.51L159.11-0.51L159.11-0.51Q158.28-1.16 158.28-2.77L158.28-2.77L158.28-9.47L157.23-9.47L157.23-9.47Q157.02-9.47 156.91-9.62L156.91-9.62L156.91-9.62Q156.81-9.77 156.81-10.10L156.81-10.10L156.81-10.35L156.81-10.35Q156.81-10.69 156.91-10.84L156.91-10.84L156.91-10.84Q157.02-10.98 157.23-10.98L157.23-10.98L158.28-10.98L158.53-13.19L158.53-13.19Q158.59-13.65 159.20-13.65L159.20-13.65L159.41-13.65L159.41-13.65Q160.04-13.65 160.04-13.19L160.04-13.19L160.04-10.98L161.81-10.98L161.81-10.98Q162.04-10.98 162.13-10.84L162.13-10.84L162.13-10.84Q162.23-10.69 162.23-10.35L162.23-10.35L162.23-10.10L162.23-10.10Q162.23-9.77 162.13-9.62L162.13-9.62L162.13-9.62Q162.04-9.47 161.81-9.47L161.81-9.47L160.04-9.47L160.04-2.94L160.04-2.94Q160.04-2.06 160.35-1.72L160.35-1.72L160.35-1.72Q160.65-1.39 161.18-1.39L161.18-1.39L161.18-1.39Q161.57-1.39 161.77-1.44L161.77-1.44L161.77-1.44Q161.97-1.49 162.08-1.49L162.08-1.49L162.08-1.49Q162.27-1.49 162.39-1.10L162.39-1.10L162.39-1.10Q162.52-0.71 162.52-0.50L162.52-0.50L162.52-0.50Q162.52 0.13 160.99 0.13L160.99 0.13ZM171.02 0.04L171.02 0.04Q170.18 0.04 170.18-0.42L170.18-0.42L170.18-15.33L170.18-15.33Q170.18-15.79 171.02-15.79L171.02-15.79L171.11-15.79L171.11-15.79Q171.95-15.79 171.95-15.33L171.95-15.33L171.95-9.66L171.95-9.66Q172.58-10.29 173.41-10.70L173.41-10.70L173.41-10.70Q174.24-11.11 175.16-11.11L175.16-11.11L175.16-11.11Q176.48-11.11 177.49-10.36L177.49-10.36L177.49-10.36Q178.50-9.62 178.50-7.71L178.50-7.71L178.50-0.42L178.50-0.42Q178.50 0.04 177.66 0.04L177.66 0.04L177.58 0.04L177.58 0.04Q176.74 0.04 176.74-0.42L176.74-0.42L176.74-7.54L176.74-7.54Q176.74-8.48 176.19-9.03L176.19-9.03L176.19-9.03Q175.64-9.58 174.59-9.58L174.59-9.58L174.59-9.58Q173.90-9.58 173.31-9.25L173.31-9.25L173.31-9.25Q172.73-8.93 172.34-8.54L172.34-8.54L172.34-8.54Q171.95-8.15 171.95-8.11L171.95-8.11L171.95-0.42L171.95-0.42Q171.95 0.04 171.11 0.04L171.11 0.04L171.02 0.04ZM184.74 0.13L184.74 0.13Q183.12 0.13 182.13-0.67L182.13-0.67L182.13-0.67Q181.15-1.47 181.15-3.02L181.15-3.02L181.15-3.02Q181.15-4.68 182.14-5.51L182.14-5.51L182.14-5.51Q183.14-6.34 184.59-6.58L184.59-6.58L184.59-6.58Q186.04-6.83 188.12-6.85L188.12-6.85L188.12-7.83L188.12-7.83Q188.12-8.61 187.57-9.10L187.57-9.10L187.57-9.10Q187.03-9.60 185.81-9.60L185.81-9.60L185.81-9.60Q184.88-9.60 184.19-9.38L184.19-9.38L184.19-9.38Q183.50-9.16 183.04-8.94L183.04-8.94L183.04-8.94Q182.57-8.71 182.53-8.71L182.53-8.71L182.53-8.71Q182.32-8.71 182.06-9.13L182.06-9.13L182.06-9.13Q181.80-9.55 181.80-9.77L181.80-9.77L181.80-9.77Q181.80-10.04 182.35-10.35L182.35-10.35L182.35-10.35Q182.91-10.67 183.83-10.89L183.83-10.89L183.83-10.89Q184.76-11.11 185.75-11.11L185.75-11.11L185.75-11.11Q187.70-11.11 188.79-10.24L188.79-10.24L188.79-10.24Q189.88-9.37 189.88-7.81L189.88-7.81L189.88-3.11L189.88-3.11Q189.88-1.72 190.01-1.12L190.01-1.12L190.01-1.12Q190.13-0.53 190.13-0.46L190.13-0.46L190.13-0.46Q190.13-0.21 189.74-0.09L189.74-0.09L189.74-0.09Q189.34 0.02 189.00 0.02L189.00 0.02L189.00 0.02Q188.71 0.02 188.57-0.30L188.57-0.30L188.57-0.30Q188.43-0.63 188.36-0.99L188.36-0.99L188.36-0.99Q188.29-1.34 188.27-1.45L188.27-1.45L188.27-1.45Q186.84 0.13 184.74 0.13L184.74 0.13ZM184.82-1.41L184.82-1.41Q185.85-1.41 186.60-1.79L186.60-1.79L186.60-1.79Q187.34-2.16 188.12-2.86L188.12-2.86L188.12-5.33L188.12-5.33Q186.54-5.31 185.55-5.21L185.55-5.21L185.55-5.21Q184.55-5.10 183.79-4.62L183.79-4.62L183.79-4.62Q183.04-4.14 183.04-3.13L183.04-3.13L183.04-3.13Q183.04-2.29 183.49-1.85L183.49-1.85L183.49-1.85Q183.94-1.41 184.82-1.41L184.82-1.41ZM194.29 0.04L194.29 0.04Q193.45 0.04 193.45-0.42L193.45-0.42L193.45-7.79L193.45-7.79Q193.45-9.18 193.33-9.78L193.33-9.78L193.33-9.78Q193.20-10.37 193.20-10.44L193.20-10.44L193.20-10.44Q193.20-10.69 193.60-10.80L193.60-10.80L193.60-10.80Q194.00-10.92 194.33-10.92L194.33-10.92L194.33-10.92Q194.63-10.92 194.76-10.62L194.76-10.62L194.76-10.62Q194.90-10.31 194.97-9.98L194.97-9.98L194.97-9.98Q195.05-9.64 195.07-9.53L195.07-9.53L195.07-9.53Q196.18-11.11 197.51-11.11L197.51-11.11L197.51-11.11Q198.09-11.11 198.41-10.88L198.41-10.88L198.41-10.88Q198.72-10.65 198.72-10.29L198.72-10.29L198.72-10.29Q198.72-9.93 198.60-9.54L198.60-9.54L198.60-9.54Q198.47-9.16 198.30-9.16L198.30-9.16L198.30-9.16Q198.20-9.16 197.89-9.27L197.89-9.27L197.89-9.27Q197.59-9.39 197.15-9.39L197.15-9.39L197.15-9.39Q196.67-9.39 196.23-9.10L196.23-9.10L196.23-9.10Q195.80-8.82 195.51-8.48L195.51-8.48L195.51-8.48Q195.22-8.15 195.22-8.11L195.22-8.11L195.22-0.42L195.22-0.42Q195.22 0.04 194.38 0.04L194.38 0.04L194.29 0.04ZM204.41 0.13L204.41 0.13Q203.18 0.13 202.25-0.59L202.25-0.59L202.25-0.59Q201.33-1.30 200.83-2.58L200.83-2.58L200.83-2.58Q200.34-3.86 200.34-5.48L200.34-5.48L200.34-5.48Q200.34-7.27 200.88-8.54L200.88-8.54L200.88-8.54Q201.41-9.81 202.38-10.46L202.38-10.46L202.38-10.46Q203.34-11.11 204.60-11.11L204.60-11.11L204.60-11.11Q205.53-11.11 206.23-10.84L206.23-10.84L206.23-10.84Q206.93-10.56 207.61-10.04L207.61-10.04L207.61-15.33L207.61-15.33Q207.61-15.79 208.45-15.79L208.45-15.79L208.53-15.79L208.53-15.79Q209.37-15.79 209.37-15.33L209.37-15.33L209.37-3.11L209.37-3.11Q209.37-1.72 209.50-1.12L209.50-1.12L209.50-1.12Q209.62-0.53 209.62-0.46L209.62-0.46L209.62-0.46Q209.62-0.21 209.22-0.09L209.22-0.09L209.22-0.09Q208.82 0.02 208.49 0.02L208.49 0.02L208.49 0.02Q208.19 0.02 208.06-0.30L208.06-0.30L208.06-0.30Q207.92-0.63 207.85-0.99L207.85-0.99L207.85-0.99Q207.77-1.34 207.75-1.45L207.75-1.45L207.75-1.45Q206.24 0.13 204.41 0.13L204.41 0.13ZM204.77-1.41L204.77-1.41Q205.49-1.41 206.23-1.79L206.23-1.79L206.23-1.79Q206.98-2.16 207.61-2.86L207.61-2.86L207.61-8.61L207.61-8.61Q206.47-9.55 205.02-9.55L205.02-9.55L205.02-9.55Q203.62-9.55 202.90-8.55L202.90-8.55L202.90-8.55Q202.19-7.54 202.19-5.65L202.19-5.65L202.19-5.65Q202.19-3.61 202.86-2.51L202.86-2.51L202.86-2.51Q203.53-1.41 204.77-1.41L204.77-1.41ZM217.41 0.13L217.41 0.13Q214.79 0.13 213.53-1.24L213.53-1.24L213.53-1.24Q212.27-2.60 212.27-5.42L212.27-5.42L212.27-5.42Q212.27-8.21 213.51-9.66L213.51-9.66L213.51-9.66Q214.75-11.11 217.16-11.11L217.16-11.11L217.16-11.11Q219.30-11.11 220.40-9.71L220.40-9.71L220.40-9.71Q221.49-8.32 221.49-5.63L221.49-5.63L221.49-5.63Q221.49-5.44 221.24-5.10L221.24-5.10L221.24-5.10Q220.98-4.77 220.79-4.77L220.79-4.77L214.16-4.77L214.16-4.77Q214.28-3.02 215.06-2.21L215.06-2.21L215.06-2.21Q215.84-1.39 217.39-1.39L217.39-1.39L217.39-1.39Q218.27-1.39 218.91-1.61L218.91-1.61L218.91-1.61Q219.56-1.83 219.98-2.05L219.98-2.05L219.98-2.05Q220.40-2.27 220.46-2.27L220.46-2.27L220.46-2.27Q220.67-2.27 220.93-1.85L220.93-1.85L220.93-1.85Q221.19-1.43 221.19-1.22L221.19-1.22L221.19-1.22Q221.19-0.97 220.67-0.64L220.67-0.64L220.67-0.64Q220.14-0.32 219.27-0.09L219.27-0.09L219.27-0.09Q218.40 0.13 217.41 0.13L217.41 0.13ZM214.16-6.28L219.62-6.28L219.62-6.28Q219.62-9.60 217.10-9.60L217.10-9.60L217.10-9.60Q214.39-9.60 214.16-6.28L214.16-6.28ZM225.16 0.04L225.16 0.04Q224.32 0.04 224.32-0.42L224.32-0.42L224.32-7.79L224.32-7.79Q224.32-9.18 224.20-9.78L224.20-9.78L224.20-9.78Q224.07-10.37 224.07-10.44L224.07-10.44L224.07-10.44Q224.07-10.69 224.47-10.80L224.47-10.80L224.47-10.80Q224.87-10.92 225.20-10.92L225.20-10.92L225.20-10.92Q225.50-10.92 225.63-10.62L225.63-10.62L225.63-10.62Q225.77-10.31 225.84-9.98L225.84-9.98L225.84-9.98Q225.92-9.64 225.94-9.53L225.94-9.53L225.94-9.53Q227.05-11.11 228.38-11.11L228.38-11.11L228.38-11.11Q228.96-11.11 229.28-10.88L229.28-10.88L229.28-10.88Q229.59-10.65 229.59-10.29L229.59-10.29L229.59-10.29Q229.59-9.93 229.47-9.54L229.47-9.54L229.47-9.54Q229.34-9.16 229.17-9.16L229.17-9.16L229.17-9.16Q229.07-9.16 228.76-9.27L228.76-9.27L228.76-9.27Q228.46-9.39 228.02-9.39L228.02-9.39L228.02-9.39Q227.54-9.39 227.10-9.10L227.10-9.10L227.10-9.10Q226.67-8.82 226.38-8.48L226.38-8.48L226.38-8.48Q226.09-8.15 226.09-8.11L226.09-8.11L226.09-0.42L226.09-0.42Q226.09 0.04 225.25 0.04L225.25 0.04L225.16 0.04Z" fill="#00AB55"></path></g></g></g></g></svg>